# xmcd CD database file
#
# Track frame offsets:
#	150
#	23839
#	47624
#	70187
#	77958
#	100877
#	127355
#	146072
#	171375
#	189573
#	213105
#	233989
#
# Disc length: 3310 seconds
#
# Revision: 0
# Processed by: cddbd v1.5.1PL0 Copyright (c) Steve Scherf et al.
# Submitted via: CDex 1.51
#
DISCID=b00cec0c
DTITLE=Jacqui Dankworth - Detour Ahead
DYEAR=2004
DGENRE=Jazz
TTITLE0=Detour Ahead
TTITLE1=But Beautiful
TTITLE2=On The Street Where You Live
TTITLE3=My Romance
TTITLE4=The Island
TTITLE5=Time Takes It Time
TTITLE6=Strange Woman
TTITLE7=Gentle Rain
TTITLE8=I Can't Make You Love Me
TTITLE9=Train In The Distance
TTITLE10=Not Like This
TTITLE11=Come Home Baby
EXTD=YEAR: 2004
EXTT0=
EXTT1=
EXTT2=
EXTT3=
EXTT4=
EXTT5=
EXTT6=
EXTT7=
EXTT8=
EXTT9=
EXTT10=
EXTT11=
PLAYORDER=
